<?xml version="1.0" encoding="UTF-8"?>
<svg id="Layer_1" xmlns="http://www.w3.org/2000/svg" version="1.1" viewBox="0 0 800 800">
  <!-- Generator: Adobe Illustrator 29.6.1, SVG Export Plug-In . SVG Version: 2.1.1 Build 9)  -->
  <defs>
    <style>
      .st0 {
        fill: #323232;
        fill-rule: evenodd;
      }
    </style>
  </defs>
  <path class="st0" d="M733.33,700c0,18.41-14.92,33.33-33.33,33.33H100c-18.41,0-33.33-14.92-33.33-33.33s14.92-33.33,33.33-33.33h600c18.41,0,33.33,14.92,33.33,33.33Z"/>
  <path class="st0" d="M281.03,205.27c18.23-4.05,39.43-5.27,62.97-5.27h112c23.54,0,44.74,1.22,62.97,5.27,18.61,4.14,36.11,11.65,50.11,25.65,14,14,21.51,31.5,25.65,50.11,4.05,18.23,5.27,39.43,5.27,62.97v112c0,23.54-1.22,44.74-5.27,62.97-4.14,18.61-11.65,36.11-25.65,50.11-14,14-31.5,21.51-50.11,25.65-18.23,4.05-39.43,5.27-62.97,5.27h-112c-23.54,0-44.74-1.22-62.97-5.27-18.61-4.14-36.11-11.65-50.11-25.65-14-14-21.52-31.5-25.65-50.11-4.05-18.23-5.27-39.43-5.27-62.97v-112c0-23.54,1.22-44.74,5.27-62.97,4.14-18.61,11.65-36.11,25.65-50.11s31.5-21.52,50.11-25.65Z"/>
</svg>